G04 (created by PCBNEW-RS274X (2012-01-19 BZR 3256)-stable) date 10/2/2012 11:56:40 PM*
G01*
G70*
G90*
%MOIN*%
G04 Gerber Fmt 3.4, Leading zero omitted, Abs format*
%FSLAX34Y34*%
G04 APERTURE LIST*
%ADD10C,0.006000*%
%ADD11C,0.012000*%
%ADD12C,0.005000*%
%ADD13C,0.015000*%
%ADD14C,0.010000*%
%ADD15C,0.008000*%
%ADD16C,0.011300*%
%ADD17C,0.003500*%
G04 APERTURE END LIST*
G54D10*
X61394Y-40262D02*
X61394Y-39862D01*
X61523Y-40262D02*
X61523Y-40052D01*
X61509Y-40014D01*
X61480Y-39995D01*
X61437Y-39995D01*
X61409Y-40014D01*
X61394Y-40033D01*
X61623Y-39995D02*
X61737Y-39995D01*
X61665Y-39862D02*
X61665Y-40205D01*
X61680Y-40243D01*
X61708Y-40262D01*
X61737Y-40262D01*
X61794Y-39995D02*
X61908Y-39995D01*
X61836Y-39862D02*
X61836Y-40205D01*
X61851Y-40243D01*
X61879Y-40262D01*
X61908Y-40262D01*
X62007Y-39995D02*
X62007Y-40395D01*
X62007Y-40014D02*
X62036Y-39995D01*
X62093Y-39995D01*
X62122Y-40014D01*
X62136Y-40033D01*
X62150Y-40071D01*
X62150Y-40186D01*
X62136Y-40224D01*
X62122Y-40243D01*
X62093Y-40262D01*
X62036Y-40262D01*
X62007Y-40243D01*
X62278Y-40224D02*
X62293Y-40243D01*
X62278Y-40262D01*
X62264Y-40243D01*
X62278Y-40224D01*
X62278Y-40262D01*
X62278Y-40014D02*
X62293Y-40033D01*
X62278Y-40052D01*
X62264Y-40033D01*
X62278Y-40014D01*
X62278Y-40052D01*
X62636Y-39843D02*
X62379Y-40357D01*
X62950Y-39843D02*
X62693Y-40357D01*
X63049Y-40262D02*
X63049Y-39995D01*
X63049Y-40033D02*
X63064Y-40014D01*
X63092Y-39995D01*
X63135Y-39995D01*
X63164Y-40014D01*
X63178Y-40052D01*
X63178Y-40262D01*
X63178Y-40052D02*
X63192Y-40014D01*
X63221Y-39995D01*
X63264Y-39995D01*
X63292Y-40014D01*
X63307Y-40052D01*
X63307Y-40262D01*
X63421Y-40262D02*
X63578Y-39995D01*
X63421Y-39995D02*
X63578Y-40262D01*
X63692Y-40224D02*
X63707Y-40243D01*
X63692Y-40262D01*
X63678Y-40243D01*
X63692Y-40224D01*
X63692Y-40262D01*
X63835Y-40262D02*
X63835Y-39995D01*
X63835Y-40033D02*
X63850Y-40014D01*
X63878Y-39995D01*
X63921Y-39995D01*
X63950Y-40014D01*
X63964Y-40052D01*
X63964Y-40262D01*
X63964Y-40052D02*
X63978Y-40014D01*
X64007Y-39995D01*
X64050Y-39995D01*
X64078Y-40014D01*
X64093Y-40052D01*
X64093Y-40262D01*
X64207Y-39995D02*
X64278Y-40262D01*
X64350Y-39995D02*
X64278Y-40262D01*
X64250Y-40357D01*
X64235Y-40376D01*
X64207Y-40395D01*
X64579Y-40243D02*
X64550Y-40262D01*
X64493Y-40262D01*
X64464Y-40243D01*
X64450Y-40205D01*
X64450Y-40052D01*
X64464Y-40014D01*
X64493Y-39995D01*
X64550Y-39995D01*
X64579Y-40014D01*
X64593Y-40052D01*
X64593Y-40090D01*
X64450Y-40129D01*
X64764Y-40262D02*
X64736Y-40243D01*
X64721Y-40205D01*
X64721Y-39862D01*
X64878Y-40224D02*
X64893Y-40243D01*
X64878Y-40262D01*
X64864Y-40243D01*
X64878Y-40224D01*
X64878Y-40262D01*
X65021Y-40262D02*
X65021Y-39995D01*
X65021Y-39862D02*
X65007Y-39881D01*
X65021Y-39900D01*
X65036Y-39881D01*
X65021Y-39862D01*
X65021Y-39900D01*
X65164Y-39995D02*
X65164Y-40262D01*
X65164Y-40033D02*
X65179Y-40014D01*
X65207Y-39995D01*
X65250Y-39995D01*
X65279Y-40014D01*
X65293Y-40052D01*
X65293Y-40262D01*
X65650Y-39843D02*
X65393Y-40357D01*
G54D11*
X53600Y-39900D02*
X53200Y-39900D01*
X53200Y-39900D02*
X53200Y-40300D01*
X53200Y-40300D02*
X50000Y-40300D01*
X50000Y-40300D02*
X50000Y-39500D01*
X50000Y-39500D02*
X53200Y-39500D01*
X53200Y-39500D02*
X53200Y-39900D01*
X53200Y-40100D02*
X53000Y-40300D01*
X49600Y-39900D02*
X50000Y-39900D01*
G54D12*
X59350Y-39100D02*
X59326Y-39342D01*
X59255Y-39576D01*
X59141Y-39791D01*
X58986Y-39980D01*
X58798Y-40136D01*
X58584Y-40252D01*
X58351Y-40324D01*
X58108Y-40349D01*
X57866Y-40327D01*
X57632Y-40258D01*
X57416Y-40145D01*
X57226Y-39993D01*
X57069Y-39806D01*
X56952Y-39592D01*
X56878Y-39359D01*
X56851Y-39117D01*
X56871Y-38875D01*
X56938Y-38640D01*
X57050Y-38423D01*
X57201Y-38232D01*
X57387Y-38074D01*
X57600Y-37955D01*
X57832Y-37880D01*
X58074Y-37851D01*
X58317Y-37869D01*
X58552Y-37935D01*
X58769Y-38045D01*
X58962Y-38195D01*
X59121Y-38380D01*
X59241Y-38592D01*
X59318Y-38824D01*
X59349Y-39066D01*
X59350Y-39100D01*
G54D11*
X60080Y-40600D02*
X58100Y-40600D01*
X58100Y-40600D02*
X58100Y-39600D01*
X58100Y-39600D02*
X60100Y-39600D01*
X60100Y-39600D02*
X60100Y-40600D01*
X60100Y-40350D02*
X59850Y-40600D01*
X58080Y-40600D02*
X56100Y-40600D01*
X56100Y-40600D02*
X56100Y-39600D01*
X56100Y-39600D02*
X58100Y-39600D01*
X58100Y-39600D02*
X58100Y-40600D01*
X58100Y-40350D02*
X57850Y-40600D01*
G54D13*
X48600Y-35600D02*
X63600Y-35600D01*
X63600Y-35600D02*
X63600Y-37600D01*
X63600Y-37600D02*
X48600Y-37600D01*
X48600Y-37600D02*
X48600Y-35600D01*
X48600Y-36100D02*
X49100Y-36100D01*
X49100Y-36100D02*
X49100Y-37100D01*
X49100Y-37100D02*
X48600Y-37100D01*
G54D11*
X66600Y-35100D02*
X66600Y-39100D01*
X66600Y-39100D02*
X64600Y-39100D01*
X64600Y-39100D02*
X64600Y-35100D01*
X64600Y-35100D02*
X66600Y-35100D01*
G54D14*
X65520Y-34200D02*
X65520Y-33200D01*
G54D10*
X64440Y-33316D02*
X64408Y-33358D01*
X64380Y-33402D01*
X64356Y-33449D01*
X64336Y-33497D01*
X64320Y-33547D01*
X64309Y-33598D01*
X64303Y-33650D01*
X64300Y-33700D01*
X64301Y-33700D02*
X64304Y-33752D01*
X64311Y-33804D01*
X64322Y-33855D01*
X64338Y-33904D01*
X64358Y-33953D01*
X64382Y-33999D01*
X64410Y-34043D01*
X64442Y-34085D01*
X64453Y-34097D01*
X65499Y-33700D02*
X65496Y-33648D01*
X65489Y-33596D01*
X65478Y-33545D01*
X65462Y-33496D01*
X65442Y-33447D01*
X65418Y-33401D01*
X65390Y-33357D01*
X65358Y-33315D01*
X65354Y-33311D01*
X65360Y-34084D02*
X65392Y-34042D01*
X65420Y-33998D01*
X65444Y-33951D01*
X65464Y-33903D01*
X65480Y-33853D01*
X65491Y-33802D01*
X65497Y-33750D01*
X65500Y-33700D01*
X65387Y-33351D02*
X65355Y-33310D01*
X65319Y-33272D01*
X65280Y-33237D01*
X65238Y-33205D01*
X65194Y-33178D01*
X65147Y-33154D01*
X65099Y-33135D01*
X65049Y-33119D01*
X64997Y-33109D01*
X64946Y-33102D01*
X64900Y-33100D01*
X64900Y-33100D02*
X64848Y-33103D01*
X64796Y-33110D01*
X64745Y-33121D01*
X64695Y-33137D01*
X64647Y-33157D01*
X64601Y-33181D01*
X64556Y-33209D01*
X64515Y-33241D01*
X64476Y-33276D01*
X64441Y-33315D01*
X64421Y-33340D01*
X64900Y-34299D02*
X64952Y-34296D01*
X65004Y-34289D01*
X65055Y-34278D01*
X65104Y-34262D01*
X65153Y-34242D01*
X65199Y-34218D01*
X65243Y-34190D01*
X65285Y-34158D01*
X65323Y-34123D01*
X65358Y-34085D01*
X65372Y-34067D01*
X64427Y-34068D02*
X64461Y-34108D01*
X64498Y-34145D01*
X64539Y-34178D01*
X64582Y-34208D01*
X64627Y-34234D01*
X64675Y-34255D01*
X64724Y-34273D01*
X64775Y-34286D01*
X64826Y-34295D01*
X64879Y-34299D01*
X64900Y-34300D01*
X64900Y-33450D02*
X64879Y-33451D01*
X64857Y-33454D01*
X64836Y-33459D01*
X64815Y-33466D01*
X64795Y-33474D01*
X64776Y-33484D01*
X64757Y-33496D01*
X64740Y-33509D01*
X64724Y-33524D01*
X64709Y-33540D01*
X64696Y-33557D01*
X64684Y-33576D01*
X64674Y-33595D01*
X64666Y-33615D01*
X64659Y-33636D01*
X64654Y-33657D01*
X64651Y-33679D01*
X64650Y-33700D01*
X64900Y-33300D02*
X64866Y-33302D01*
X64831Y-33307D01*
X64797Y-33314D01*
X64764Y-33325D01*
X64731Y-33338D01*
X64701Y-33354D01*
X64671Y-33373D01*
X64643Y-33394D01*
X64618Y-33418D01*
X64594Y-33443D01*
X64573Y-33471D01*
X64554Y-33501D01*
X64538Y-33531D01*
X64525Y-33564D01*
X64514Y-33597D01*
X64507Y-33631D01*
X64502Y-33666D01*
X64500Y-33700D01*
X64900Y-33950D02*
X64921Y-33949D01*
X64943Y-33946D01*
X64964Y-33941D01*
X64985Y-33934D01*
X65005Y-33926D01*
X65025Y-33916D01*
X65043Y-33904D01*
X65060Y-33891D01*
X65076Y-33876D01*
X65091Y-33860D01*
X65104Y-33843D01*
X65116Y-33824D01*
X65126Y-33805D01*
X65134Y-33785D01*
X65141Y-33764D01*
X65146Y-33743D01*
X65149Y-33721D01*
X65150Y-33700D01*
X64900Y-34100D02*
X64934Y-34098D01*
X64969Y-34093D01*
X65003Y-34086D01*
X65036Y-34075D01*
X65069Y-34062D01*
X65100Y-34046D01*
X65129Y-34027D01*
X65157Y-34006D01*
X65182Y-33982D01*
X65206Y-33957D01*
X65227Y-33929D01*
X65246Y-33899D01*
X65262Y-33869D01*
X65275Y-33836D01*
X65286Y-33803D01*
X65293Y-33769D01*
X65298Y-33734D01*
X65300Y-33700D01*
G54D14*
X65513Y-33187D02*
X65466Y-33136D01*
X65415Y-33089D01*
X65360Y-33046D01*
X65301Y-33008D01*
X65239Y-32976D01*
X65174Y-32949D01*
X65108Y-32928D01*
X65040Y-32913D01*
X64971Y-32904D01*
X64901Y-32901D01*
X64900Y-32900D01*
X64900Y-32901D02*
X64831Y-32905D01*
X64762Y-32914D01*
X64694Y-32929D01*
X64627Y-32950D01*
X64563Y-32976D01*
X64501Y-33009D01*
X64442Y-33046D01*
X64387Y-33088D01*
X64336Y-33136D01*
X64288Y-33187D01*
X64246Y-33242D01*
X64209Y-33301D01*
X64196Y-33324D01*
X64901Y-34497D02*
X64970Y-34494D01*
X65039Y-34485D01*
X65107Y-34470D01*
X65174Y-34449D01*
X65238Y-34422D01*
X65300Y-34390D01*
X65358Y-34352D01*
X65414Y-34310D01*
X65465Y-34263D01*
X65509Y-34215D01*
X64206Y-34097D02*
X64244Y-34156D01*
X64286Y-34212D01*
X64333Y-34263D01*
X64384Y-34311D01*
X64439Y-34353D01*
X64498Y-34391D01*
X64560Y-34423D01*
X64624Y-34450D01*
X64691Y-34472D01*
X64759Y-34487D01*
X64828Y-34496D01*
X64898Y-34499D01*
X64900Y-34500D01*
X64196Y-33321D02*
X64166Y-33384D01*
X64141Y-33449D01*
X64122Y-33516D01*
X64109Y-33585D01*
X64102Y-33654D01*
X64100Y-33700D01*
X64101Y-33700D02*
X64105Y-33769D01*
X64114Y-33838D01*
X64129Y-33906D01*
X64150Y-33973D01*
X64176Y-34037D01*
X64209Y-34099D01*
X64220Y-34118D01*
G54D13*
X57600Y-33100D02*
X57600Y-33100D01*
X57600Y-33100D02*
X57100Y-33100D01*
X57100Y-33100D02*
X57100Y-32100D01*
X57100Y-32100D02*
X57600Y-32100D01*
X57600Y-33600D02*
X48600Y-33600D01*
X48600Y-33600D02*
X48600Y-31600D01*
X48600Y-31600D02*
X57600Y-31600D01*
X57600Y-31600D02*
X57600Y-33600D01*
G54D11*
X57080Y-39600D02*
X55100Y-39600D01*
X55100Y-39600D02*
X55100Y-38600D01*
X55100Y-38600D02*
X57100Y-38600D01*
X57100Y-38600D02*
X57100Y-39600D01*
X57100Y-39350D02*
X56850Y-39600D01*
X57600Y-32830D02*
X57600Y-30850D01*
X57600Y-30850D02*
X58600Y-30850D01*
X58600Y-30850D02*
X58600Y-32850D01*
X58600Y-32850D02*
X57600Y-32850D01*
X57850Y-32850D02*
X57600Y-32600D01*
G54D15*
X59600Y-31600D02*
X62600Y-31600D01*
X62600Y-33600D02*
X59600Y-33600D01*
X59600Y-33600D02*
X59600Y-31600D01*
X62600Y-31600D02*
X62600Y-33600D01*
G54D11*
X48600Y-33100D02*
X48600Y-33100D01*
X48600Y-33100D02*
X48600Y-40100D01*
X48600Y-40100D02*
X47600Y-40100D01*
X47600Y-40100D02*
X47600Y-33100D01*
X47600Y-33100D02*
X48600Y-33100D01*
X47600Y-34100D02*
X47600Y-34100D01*
X47600Y-34100D02*
X48600Y-34100D01*
G54D15*
X63500Y-31400D02*
X63500Y-31600D01*
X63500Y-34400D02*
X63500Y-34200D01*
X63500Y-34200D02*
X63900Y-34200D01*
X63900Y-34200D02*
X63900Y-31600D01*
X63900Y-31600D02*
X63100Y-31600D01*
X63100Y-31600D02*
X63100Y-34200D01*
X63100Y-34200D02*
X63500Y-34200D01*
X63700Y-31600D02*
X63900Y-31800D01*
X51517Y-40123D02*
X51350Y-39861D01*
X51231Y-40123D02*
X51231Y-39573D01*
X51422Y-39573D01*
X51469Y-39599D01*
X51493Y-39625D01*
X51517Y-39677D01*
X51517Y-39756D01*
X51493Y-39808D01*
X51469Y-39835D01*
X51422Y-39861D01*
X51231Y-39861D01*
X51993Y-40123D02*
X51707Y-40123D01*
X51850Y-40123D02*
X51850Y-39573D01*
X51802Y-39651D01*
X51755Y-39704D01*
X51707Y-39730D01*
X57542Y-38425D02*
X57509Y-38404D01*
X57492Y-38382D01*
X57476Y-38339D01*
X57476Y-38318D01*
X57492Y-38275D01*
X57509Y-38254D01*
X57542Y-38232D01*
X57609Y-38232D01*
X57642Y-38254D01*
X57659Y-38275D01*
X57676Y-38318D01*
X57676Y-38339D01*
X57659Y-38382D01*
X57642Y-38404D01*
X57609Y-38425D01*
X57542Y-38425D01*
X57509Y-38446D01*
X57492Y-38468D01*
X57476Y-38511D01*
X57476Y-38596D01*
X57492Y-38639D01*
X57509Y-38661D01*
X57542Y-38682D01*
X57609Y-38682D01*
X57642Y-38661D01*
X57659Y-38639D01*
X57676Y-38596D01*
X57676Y-38511D01*
X57659Y-38468D01*
X57642Y-38446D01*
X57609Y-38425D01*
X57825Y-38682D02*
X57825Y-38232D01*
X57942Y-38554D01*
X58059Y-38232D01*
X58059Y-38682D01*
X58225Y-38682D02*
X58225Y-38232D01*
X58225Y-38446D02*
X58425Y-38446D01*
X58425Y-38682D02*
X58425Y-38232D01*
X58559Y-38382D02*
X58742Y-38382D01*
X58559Y-38682D01*
X58742Y-38682D01*
G54D16*
X56929Y-39111D02*
X57272Y-39111D01*
X57101Y-39282D02*
X57101Y-38939D01*
G54D15*
X58614Y-39500D02*
X58633Y-39481D01*
X58671Y-39462D01*
X58767Y-39462D01*
X58805Y-39481D01*
X58824Y-39500D01*
X58843Y-39538D01*
X58843Y-39576D01*
X58824Y-39633D01*
X58595Y-39862D01*
X58843Y-39862D01*
X58995Y-39500D02*
X59014Y-39481D01*
X59052Y-39462D01*
X59148Y-39462D01*
X59186Y-39481D01*
X59205Y-39500D01*
X59224Y-39538D01*
X59224Y-39576D01*
X59205Y-39633D01*
X58976Y-39862D01*
X59224Y-39862D01*
X59395Y-39595D02*
X59395Y-39995D01*
X59395Y-39614D02*
X59433Y-39595D01*
X59510Y-39595D01*
X59548Y-39614D01*
X59567Y-39633D01*
X59586Y-39671D01*
X59586Y-39786D01*
X59567Y-39824D01*
X59548Y-39843D01*
X59510Y-39862D01*
X59433Y-39862D01*
X59395Y-39843D01*
X56614Y-39500D02*
X56633Y-39481D01*
X56671Y-39462D01*
X56767Y-39462D01*
X56805Y-39481D01*
X56824Y-39500D01*
X56843Y-39538D01*
X56843Y-39576D01*
X56824Y-39633D01*
X56595Y-39862D01*
X56843Y-39862D01*
X56995Y-39500D02*
X57014Y-39481D01*
X57052Y-39462D01*
X57148Y-39462D01*
X57186Y-39481D01*
X57205Y-39500D01*
X57224Y-39538D01*
X57224Y-39576D01*
X57205Y-39633D01*
X56976Y-39862D01*
X57224Y-39862D01*
X57395Y-39595D02*
X57395Y-39995D01*
X57395Y-39614D02*
X57433Y-39595D01*
X57510Y-39595D01*
X57548Y-39614D01*
X57567Y-39633D01*
X57586Y-39671D01*
X57586Y-39786D01*
X57567Y-39824D01*
X57548Y-39843D01*
X57510Y-39862D01*
X57433Y-39862D01*
X57395Y-39843D01*
G54D16*
X51971Y-36771D02*
X52185Y-36771D01*
X51928Y-36943D02*
X52078Y-36343D01*
X52228Y-36943D01*
X52314Y-36343D02*
X52571Y-36343D01*
X52442Y-36943D02*
X52442Y-36343D01*
X52721Y-36943D02*
X52721Y-36343D01*
X52871Y-36771D01*
X53021Y-36343D01*
X53021Y-36943D01*
X53235Y-36629D02*
X53385Y-36629D01*
X53449Y-36943D02*
X53235Y-36943D01*
X53235Y-36343D01*
X53449Y-36343D01*
X53878Y-36371D02*
X53835Y-36343D01*
X53771Y-36343D01*
X53706Y-36371D01*
X53664Y-36429D01*
X53642Y-36486D01*
X53621Y-36600D01*
X53621Y-36686D01*
X53642Y-36800D01*
X53664Y-36857D01*
X53706Y-36914D01*
X53771Y-36943D01*
X53814Y-36943D01*
X53878Y-36914D01*
X53899Y-36886D01*
X53899Y-36686D01*
X53814Y-36686D01*
X54071Y-36771D02*
X54285Y-36771D01*
X54028Y-36943D02*
X54178Y-36343D01*
X54328Y-36943D01*
X54435Y-36343D02*
X54714Y-36343D01*
X54564Y-36571D01*
X54628Y-36571D01*
X54671Y-36600D01*
X54692Y-36629D01*
X54714Y-36686D01*
X54714Y-36829D01*
X54692Y-36886D01*
X54671Y-36914D01*
X54628Y-36943D01*
X54500Y-36943D01*
X54457Y-36914D01*
X54435Y-36886D01*
X54886Y-36400D02*
X54907Y-36371D01*
X54950Y-36343D01*
X55057Y-36343D01*
X55100Y-36371D01*
X55121Y-36400D01*
X55143Y-36457D01*
X55143Y-36514D01*
X55121Y-36600D01*
X54864Y-36943D01*
X55143Y-36943D01*
X55400Y-36600D02*
X55358Y-36571D01*
X55336Y-36543D01*
X55315Y-36486D01*
X55315Y-36457D01*
X55336Y-36400D01*
X55358Y-36371D01*
X55400Y-36343D01*
X55486Y-36343D01*
X55529Y-36371D01*
X55550Y-36400D01*
X55572Y-36457D01*
X55572Y-36486D01*
X55550Y-36543D01*
X55529Y-36571D01*
X55486Y-36600D01*
X55400Y-36600D01*
X55358Y-36629D01*
X55336Y-36657D01*
X55315Y-36714D01*
X55315Y-36829D01*
X55336Y-36886D01*
X55358Y-36914D01*
X55400Y-36943D01*
X55486Y-36943D01*
X55529Y-36914D01*
X55550Y-36886D01*
X55572Y-36829D01*
X55572Y-36714D01*
X55550Y-36657D01*
X55529Y-36629D01*
X55486Y-36600D01*
X55765Y-36943D02*
X55765Y-36343D01*
X55937Y-36343D01*
X55979Y-36371D01*
X56001Y-36400D01*
X56022Y-36457D01*
X56022Y-36543D01*
X56001Y-36600D01*
X55979Y-36629D01*
X55937Y-36657D01*
X55765Y-36657D01*
X56215Y-36714D02*
X56558Y-36714D01*
X56772Y-36943D02*
X56772Y-36343D01*
X56944Y-36343D01*
X56986Y-36371D01*
X57008Y-36400D01*
X57029Y-36457D01*
X57029Y-36543D01*
X57008Y-36600D01*
X56986Y-36629D01*
X56944Y-36657D01*
X56772Y-36657D01*
G54D15*
X65362Y-37305D02*
X65686Y-37305D01*
X65724Y-37286D01*
X65743Y-37267D01*
X65762Y-37229D01*
X65762Y-37152D01*
X65743Y-37114D01*
X65724Y-37095D01*
X65686Y-37076D01*
X65362Y-37076D01*
X65762Y-36676D02*
X65762Y-36905D01*
X65762Y-36791D02*
X65362Y-36791D01*
X65419Y-36829D01*
X65457Y-36867D01*
X65476Y-36905D01*
G54D17*
X64614Y-32707D02*
X64657Y-32721D01*
X64728Y-32721D01*
X64757Y-32707D01*
X64771Y-32693D01*
X64786Y-32664D01*
X64786Y-32636D01*
X64771Y-32607D01*
X64757Y-32593D01*
X64728Y-32579D01*
X64671Y-32564D01*
X64643Y-32550D01*
X64628Y-32536D01*
X64614Y-32507D01*
X64614Y-32479D01*
X64628Y-32450D01*
X64643Y-32436D01*
X64671Y-32421D01*
X64743Y-32421D01*
X64786Y-32436D01*
X65086Y-32693D02*
X65072Y-32707D01*
X65029Y-32721D01*
X65000Y-32721D01*
X64957Y-32707D01*
X64929Y-32679D01*
X64914Y-32650D01*
X64900Y-32593D01*
X64900Y-32550D01*
X64914Y-32493D01*
X64929Y-32464D01*
X64957Y-32436D01*
X65000Y-32421D01*
X65029Y-32421D01*
X65072Y-32436D01*
X65086Y-32450D01*
X65214Y-32721D02*
X65214Y-32421D01*
X65386Y-32721D02*
X65257Y-32550D01*
X65386Y-32421D02*
X65214Y-32593D01*
X64607Y-34821D02*
X64464Y-34821D01*
X64464Y-34521D01*
X64707Y-34664D02*
X64807Y-34664D01*
X64850Y-34821D02*
X64707Y-34821D01*
X64707Y-34521D01*
X64850Y-34521D01*
X64978Y-34821D02*
X64978Y-34521D01*
X65050Y-34521D01*
X65093Y-34536D01*
X65121Y-34564D01*
X65136Y-34593D01*
X65150Y-34650D01*
X65150Y-34693D01*
X65136Y-34750D01*
X65121Y-34779D01*
X65093Y-34807D01*
X65050Y-34821D01*
X64978Y-34821D01*
G54D16*
X51942Y-32786D02*
X51921Y-32814D01*
X51857Y-32843D01*
X51814Y-32843D01*
X51749Y-32814D01*
X51707Y-32757D01*
X51685Y-32700D01*
X51664Y-32586D01*
X51664Y-32500D01*
X51685Y-32386D01*
X51707Y-32329D01*
X51749Y-32271D01*
X51814Y-32243D01*
X51857Y-32243D01*
X51921Y-32271D01*
X51942Y-32300D01*
X52135Y-32843D02*
X52135Y-32243D01*
X52242Y-32243D01*
X52307Y-32271D01*
X52349Y-32329D01*
X52371Y-32386D01*
X52392Y-32500D01*
X52392Y-32586D01*
X52371Y-32700D01*
X52349Y-32757D01*
X52307Y-32814D01*
X52242Y-32843D01*
X52135Y-32843D01*
X52778Y-32443D02*
X52778Y-32843D01*
X52671Y-32214D02*
X52564Y-32643D01*
X52842Y-32643D01*
X53100Y-32243D02*
X53143Y-32243D01*
X53186Y-32271D01*
X53207Y-32300D01*
X53228Y-32357D01*
X53250Y-32471D01*
X53250Y-32614D01*
X53228Y-32729D01*
X53207Y-32786D01*
X53186Y-32814D01*
X53143Y-32843D01*
X53100Y-32843D01*
X53057Y-32814D01*
X53036Y-32786D01*
X53014Y-32729D01*
X52993Y-32614D01*
X52993Y-32471D01*
X53014Y-32357D01*
X53036Y-32300D01*
X53057Y-32271D01*
X53100Y-32243D01*
X53679Y-32843D02*
X53422Y-32843D01*
X53550Y-32843D02*
X53550Y-32243D01*
X53507Y-32329D01*
X53465Y-32386D01*
X53422Y-32414D01*
X53958Y-32243D02*
X54001Y-32243D01*
X54044Y-32271D01*
X54065Y-32300D01*
X54086Y-32357D01*
X54108Y-32471D01*
X54108Y-32614D01*
X54086Y-32729D01*
X54065Y-32786D01*
X54044Y-32814D01*
X54001Y-32843D01*
X53958Y-32843D01*
X53915Y-32814D01*
X53894Y-32786D01*
X53872Y-32729D01*
X53851Y-32614D01*
X53851Y-32471D01*
X53872Y-32357D01*
X53894Y-32300D01*
X53915Y-32271D01*
X53958Y-32243D01*
X54323Y-32843D02*
X54408Y-32843D01*
X54451Y-32814D01*
X54473Y-32786D01*
X54515Y-32700D01*
X54537Y-32586D01*
X54537Y-32357D01*
X54515Y-32300D01*
X54494Y-32271D01*
X54451Y-32243D01*
X54365Y-32243D01*
X54323Y-32271D01*
X54301Y-32300D01*
X54280Y-32357D01*
X54280Y-32500D01*
X54301Y-32557D01*
X54323Y-32586D01*
X54365Y-32614D01*
X54451Y-32614D01*
X54494Y-32586D01*
X54515Y-32557D01*
X54537Y-32500D01*
G54D15*
X55753Y-38862D02*
X55524Y-38862D01*
X55638Y-38862D02*
X55638Y-38462D01*
X55600Y-38519D01*
X55562Y-38557D01*
X55524Y-38576D01*
X56000Y-38462D02*
X56039Y-38462D01*
X56077Y-38481D01*
X56096Y-38500D01*
X56115Y-38538D01*
X56134Y-38614D01*
X56134Y-38710D01*
X56115Y-38786D01*
X56096Y-38824D01*
X56077Y-38843D01*
X56039Y-38862D01*
X56000Y-38862D01*
X55962Y-38843D01*
X55943Y-38824D01*
X55924Y-38786D01*
X55905Y-38710D01*
X55905Y-38614D01*
X55924Y-38538D01*
X55943Y-38500D01*
X55962Y-38481D01*
X56000Y-38462D01*
X56381Y-38462D02*
X56420Y-38462D01*
X56458Y-38481D01*
X56477Y-38500D01*
X56496Y-38538D01*
X56515Y-38614D01*
X56515Y-38710D01*
X56496Y-38786D01*
X56477Y-38824D01*
X56458Y-38843D01*
X56420Y-38862D01*
X56381Y-38862D01*
X56343Y-38843D01*
X56324Y-38824D01*
X56305Y-38786D01*
X56286Y-38710D01*
X56286Y-38614D01*
X56305Y-38538D01*
X56324Y-38500D01*
X56343Y-38481D01*
X56381Y-38462D01*
X56686Y-38595D02*
X56686Y-38862D01*
X56686Y-38633D02*
X56705Y-38614D01*
X56743Y-38595D01*
X56801Y-38595D01*
X56839Y-38614D01*
X56858Y-38652D01*
X56858Y-38862D01*
X57324Y-31816D02*
X57343Y-31835D01*
X57362Y-31892D01*
X57362Y-31930D01*
X57343Y-31988D01*
X57305Y-32026D01*
X57267Y-32045D01*
X57190Y-32064D01*
X57133Y-32064D01*
X57057Y-32045D01*
X57019Y-32026D01*
X56981Y-31988D01*
X56962Y-31930D01*
X56962Y-31892D01*
X56981Y-31835D01*
X57000Y-31816D01*
X56962Y-31454D02*
X56962Y-31645D01*
X57152Y-31664D01*
X57133Y-31645D01*
X57114Y-31607D01*
X57114Y-31511D01*
X57133Y-31473D01*
X57152Y-31454D01*
X57190Y-31435D01*
X57286Y-31435D01*
X57324Y-31454D01*
X57343Y-31473D01*
X57362Y-31511D01*
X57362Y-31607D01*
X57343Y-31645D01*
X57324Y-31664D01*
G54D14*
X49343Y-37534D02*
X48743Y-37534D01*
X49114Y-37496D02*
X49343Y-37381D01*
X48943Y-37381D02*
X49171Y-37534D01*
X49314Y-37057D02*
X49343Y-37095D01*
X49343Y-37172D01*
X49314Y-37210D01*
X49257Y-37229D01*
X49029Y-37229D01*
X48971Y-37210D01*
X48943Y-37172D01*
X48943Y-37095D01*
X48971Y-37057D01*
X49029Y-37038D01*
X49086Y-37038D01*
X49143Y-37229D01*
X48943Y-36905D02*
X49343Y-36810D01*
X48943Y-36714D02*
X49343Y-36810D01*
X49486Y-36848D01*
X49514Y-36867D01*
X49543Y-36905D01*
X48943Y-36562D02*
X49543Y-36562D01*
X48971Y-36562D02*
X48943Y-36524D01*
X48943Y-36447D01*
X48971Y-36409D01*
X49000Y-36390D01*
X49057Y-36371D01*
X49229Y-36371D01*
X49286Y-36390D01*
X49314Y-36409D01*
X49343Y-36447D01*
X49343Y-36524D01*
X49314Y-36562D01*
X49343Y-36028D02*
X49029Y-36028D01*
X48971Y-36047D01*
X48943Y-36085D01*
X48943Y-36162D01*
X48971Y-36200D01*
X49314Y-36028D02*
X49343Y-36066D01*
X49343Y-36162D01*
X49314Y-36200D01*
X49257Y-36219D01*
X49200Y-36219D01*
X49143Y-36200D01*
X49114Y-36162D01*
X49114Y-36066D01*
X49086Y-36028D01*
X49343Y-35666D02*
X48743Y-35666D01*
X49314Y-35666D02*
X49343Y-35704D01*
X49343Y-35781D01*
X49314Y-35819D01*
X49286Y-35838D01*
X49229Y-35857D01*
X49057Y-35857D01*
X49000Y-35838D01*
X48971Y-35819D01*
X48943Y-35781D01*
X48943Y-35704D01*
X48971Y-35666D01*
G54D10*
X48622Y-31393D02*
X48608Y-31407D01*
X48565Y-31421D01*
X48536Y-31421D01*
X48493Y-31407D01*
X48465Y-31379D01*
X48450Y-31350D01*
X48436Y-31293D01*
X48436Y-31250D01*
X48450Y-31193D01*
X48465Y-31164D01*
X48493Y-31136D01*
X48536Y-31121D01*
X48565Y-31121D01*
X48608Y-31136D01*
X48622Y-31150D01*
X48750Y-31421D02*
X48750Y-31121D01*
X48450Y-32421D02*
X48450Y-32121D01*
X48522Y-32121D01*
X48565Y-32136D01*
X48593Y-32164D01*
X48608Y-32193D01*
X48622Y-32250D01*
X48622Y-32293D01*
X48608Y-32350D01*
X48593Y-32379D01*
X48565Y-32407D01*
X48522Y-32421D01*
X48450Y-32421D01*
X48750Y-32421D02*
X48750Y-32121D01*
X61736Y-34407D02*
X61479Y-34793D01*
X62007Y-34693D02*
X61993Y-34707D01*
X61950Y-34721D01*
X61921Y-34721D01*
X61878Y-34707D01*
X61850Y-34679D01*
X61835Y-34650D01*
X61821Y-34593D01*
X61821Y-34550D01*
X61835Y-34493D01*
X61850Y-34464D01*
X61878Y-34436D01*
X61921Y-34421D01*
X61950Y-34421D01*
X61993Y-34436D01*
X62007Y-34450D01*
X62121Y-34707D02*
X62164Y-34721D01*
X62235Y-34721D01*
X62264Y-34707D01*
X62278Y-34693D01*
X62293Y-34664D01*
X62293Y-34636D01*
X62278Y-34607D01*
X62264Y-34593D01*
X62235Y-34579D01*
X62178Y-34564D01*
X62150Y-34550D01*
X62135Y-34536D01*
X62121Y-34507D01*
X62121Y-34479D01*
X62135Y-34450D01*
X62150Y-34436D01*
X62178Y-34421D01*
X62250Y-34421D01*
X62293Y-34436D01*
X62593Y-34721D02*
X62593Y-34421D01*
X62908Y-34721D02*
X62808Y-34579D01*
X62736Y-34721D02*
X62736Y-34421D01*
X62851Y-34421D01*
X62879Y-34436D01*
X62894Y-34450D01*
X62908Y-34479D01*
X62908Y-34521D01*
X62894Y-34550D01*
X62879Y-34564D01*
X62851Y-34579D01*
X62736Y-34579D01*
X63236Y-34750D02*
X63208Y-34736D01*
X63179Y-34707D01*
X63136Y-34664D01*
X63108Y-34650D01*
X63079Y-34650D01*
X63094Y-34721D02*
X63065Y-34707D01*
X63036Y-34679D01*
X63022Y-34621D01*
X63022Y-34521D01*
X63036Y-34464D01*
X63065Y-34436D01*
X63094Y-34421D01*
X63151Y-34421D01*
X63179Y-34436D01*
X63208Y-34464D01*
X63222Y-34521D01*
X63222Y-34621D01*
X63208Y-34679D01*
X63179Y-34707D01*
X63151Y-34721D01*
X63094Y-34721D01*
X62858Y-38793D02*
X62844Y-38807D01*
X62801Y-38821D01*
X62772Y-38821D01*
X62729Y-38807D01*
X62701Y-38779D01*
X62686Y-38750D01*
X62672Y-38693D01*
X62672Y-38650D01*
X62686Y-38593D01*
X62701Y-38564D01*
X62729Y-38536D01*
X62772Y-38521D01*
X62801Y-38521D01*
X62844Y-38536D01*
X62858Y-38550D01*
X62986Y-38664D02*
X63086Y-38664D01*
X63129Y-38821D02*
X62986Y-38821D01*
X62986Y-38521D01*
X63129Y-38521D01*
X57843Y-34421D02*
X57700Y-34421D01*
X57686Y-34564D01*
X57700Y-34550D01*
X57729Y-34536D01*
X57800Y-34536D01*
X57829Y-34550D01*
X57843Y-34564D01*
X57858Y-34593D01*
X57858Y-34664D01*
X57843Y-34693D01*
X57829Y-34707D01*
X57800Y-34721D01*
X57729Y-34721D01*
X57700Y-34707D01*
X57686Y-34693D01*
X57944Y-34421D02*
X58044Y-34721D01*
X58144Y-34421D01*
X58872Y-31436D02*
X58843Y-31421D01*
X58800Y-31421D01*
X58757Y-31436D01*
X58729Y-31464D01*
X58714Y-31493D01*
X58700Y-31550D01*
X58700Y-31593D01*
X58714Y-31650D01*
X58729Y-31679D01*
X58757Y-31707D01*
X58800Y-31721D01*
X58829Y-31721D01*
X58872Y-31707D01*
X58886Y-31693D01*
X58886Y-31593D01*
X58829Y-31593D01*
X59014Y-31721D02*
X59014Y-31421D01*
X59186Y-31721D01*
X59186Y-31421D01*
X59328Y-31721D02*
X59328Y-31421D01*
X59400Y-31421D01*
X59443Y-31436D01*
X59471Y-31464D01*
X59486Y-31493D01*
X59500Y-31550D01*
X59500Y-31593D01*
X59486Y-31650D01*
X59471Y-31679D01*
X59443Y-31707D01*
X59400Y-31721D01*
X59328Y-31721D01*
X58964Y-33821D02*
X58964Y-33521D01*
X59036Y-33521D01*
X59079Y-33536D01*
X59107Y-33564D01*
X59122Y-33593D01*
X59136Y-33650D01*
X59136Y-33693D01*
X59122Y-33750D01*
X59107Y-33779D01*
X59079Y-33807D01*
X59036Y-33821D01*
X58964Y-33821D01*
X59322Y-33521D02*
X59379Y-33521D01*
X59407Y-33536D01*
X59436Y-33564D01*
X59450Y-33621D01*
X59450Y-33721D01*
X59436Y-33779D01*
X59407Y-33807D01*
X59379Y-33821D01*
X59322Y-33821D01*
X59293Y-33807D01*
X59264Y-33779D01*
X59250Y-33721D01*
X59250Y-33621D01*
X59264Y-33564D01*
X59293Y-33536D01*
X59322Y-33521D01*
X59136Y-34393D02*
X59122Y-34407D01*
X59079Y-34421D01*
X59050Y-34421D01*
X59007Y-34407D01*
X58979Y-34379D01*
X58964Y-34350D01*
X58950Y-34293D01*
X58950Y-34250D01*
X58964Y-34193D01*
X58979Y-34164D01*
X59007Y-34136D01*
X59050Y-34121D01*
X59079Y-34121D01*
X59122Y-34136D01*
X59136Y-34150D01*
X59322Y-34121D02*
X59379Y-34121D01*
X59407Y-34136D01*
X59436Y-34164D01*
X59450Y-34221D01*
X59450Y-34321D01*
X59436Y-34379D01*
X59407Y-34407D01*
X59379Y-34421D01*
X59322Y-34421D01*
X59293Y-34407D01*
X59264Y-34379D01*
X59250Y-34321D01*
X59250Y-34221D01*
X59264Y-34164D01*
X59293Y-34136D01*
X59322Y-34121D01*
X59778Y-38821D02*
X59778Y-38521D01*
X59850Y-38521D01*
X59893Y-38536D01*
X59921Y-38564D01*
X59936Y-38593D01*
X59950Y-38650D01*
X59950Y-38693D01*
X59936Y-38750D01*
X59921Y-38779D01*
X59893Y-38807D01*
X59850Y-38821D01*
X59778Y-38821D01*
X60221Y-38521D02*
X60078Y-38521D01*
X60064Y-38664D01*
X60078Y-38650D01*
X60107Y-38636D01*
X60178Y-38636D01*
X60207Y-38650D01*
X60221Y-38664D01*
X60236Y-38693D01*
X60236Y-38764D01*
X60221Y-38793D01*
X60207Y-38807D01*
X60178Y-38821D01*
X60107Y-38821D01*
X60078Y-38807D01*
X60064Y-38793D01*
X60778Y-38821D02*
X60778Y-38521D01*
X60850Y-38521D01*
X60893Y-38536D01*
X60921Y-38564D01*
X60936Y-38593D01*
X60950Y-38650D01*
X60950Y-38693D01*
X60936Y-38750D01*
X60921Y-38779D01*
X60893Y-38807D01*
X60850Y-38821D01*
X60778Y-38821D01*
X61207Y-38521D02*
X61150Y-38521D01*
X61121Y-38536D01*
X61107Y-38550D01*
X61078Y-38593D01*
X61064Y-38650D01*
X61064Y-38764D01*
X61078Y-38793D01*
X61093Y-38807D01*
X61121Y-38821D01*
X61178Y-38821D01*
X61207Y-38807D01*
X61221Y-38793D01*
X61236Y-38764D01*
X61236Y-38693D01*
X61221Y-38664D01*
X61207Y-38650D01*
X61178Y-38636D01*
X61121Y-38636D01*
X61093Y-38650D01*
X61078Y-38664D01*
X61064Y-38693D01*
X61778Y-38821D02*
X61778Y-38521D01*
X61850Y-38521D01*
X61893Y-38536D01*
X61921Y-38564D01*
X61936Y-38593D01*
X61950Y-38650D01*
X61950Y-38693D01*
X61936Y-38750D01*
X61921Y-38779D01*
X61893Y-38807D01*
X61850Y-38821D01*
X61778Y-38821D01*
X62050Y-38521D02*
X62250Y-38521D01*
X62121Y-38821D01*
X53778Y-39221D02*
X53778Y-38921D01*
X53850Y-38921D01*
X53893Y-38936D01*
X53921Y-38964D01*
X53936Y-38993D01*
X53950Y-39050D01*
X53950Y-39093D01*
X53936Y-39150D01*
X53921Y-39179D01*
X53893Y-39207D01*
X53850Y-39221D01*
X53778Y-39221D01*
X54207Y-39021D02*
X54207Y-39221D01*
X54136Y-38907D02*
X54064Y-39121D01*
X54250Y-39121D01*
G54D15*
X63673Y-32745D02*
X63411Y-32912D01*
X63673Y-33031D02*
X63123Y-33031D01*
X63123Y-32840D01*
X63149Y-32793D01*
X63175Y-32769D01*
X63227Y-32745D01*
X63306Y-32745D01*
X63358Y-32769D01*
X63385Y-32793D01*
X63411Y-32840D01*
X63411Y-33031D01*
M02*
