G04 (created by PCBNEW-RS274X (2012-01-19 BZR 3256)-stable) date 10/2/2012 11:56:40 PM*
G01*
G70*
G90*
%MOIN*%
G04 Gerber Fmt 3.4, Leading zero omitted, Abs format*
%FSLAX34Y34*%
G04 APERTURE LIST*
%ADD10C,0.006000*%
%ADD11C,0.060000*%
%ADD12R,0.060000X0.060000*%
%ADD13C,0.055000*%
%ADD14R,0.055000X0.055000*%
%ADD15C,0.066000*%
%ADD16C,0.035000*%
%ADD17C,0.020000*%
%ADD18C,0.008000*%
G04 APERTURE END LIST*
G54D10*
G54D11*
X53600Y-39900D03*
X49600Y-39900D03*
G54D12*
X57600Y-39100D03*
G54D11*
X58600Y-39100D03*
G54D13*
X59600Y-40100D03*
X58600Y-40100D03*
X57600Y-40100D03*
X56600Y-40100D03*
X50600Y-38100D03*
X51600Y-38100D03*
X52600Y-38100D03*
X53600Y-38100D03*
X54600Y-38100D03*
X55600Y-38100D03*
X56600Y-38100D03*
X57600Y-38100D03*
X58600Y-38100D03*
X59600Y-38100D03*
X60600Y-38100D03*
X61600Y-38100D03*
X62600Y-38100D03*
G54D14*
X49600Y-38100D03*
G54D13*
X62600Y-35100D03*
X61600Y-35100D03*
X60600Y-35100D03*
X59600Y-35100D03*
X58600Y-35100D03*
X57600Y-35100D03*
X56600Y-35100D03*
X55600Y-35100D03*
X54600Y-35100D03*
X53600Y-35100D03*
X52600Y-35100D03*
X51600Y-35100D03*
X50600Y-35100D03*
X49600Y-35100D03*
G54D12*
X65100Y-35600D03*
G54D11*
X66100Y-35600D03*
X65100Y-36600D03*
X66100Y-36600D03*
X65100Y-37600D03*
X66100Y-37600D03*
X65100Y-38600D03*
X66100Y-38600D03*
G54D15*
X64300Y-33700D03*
X65300Y-33700D03*
G54D14*
X56600Y-31100D03*
G54D13*
X55600Y-31100D03*
X54600Y-31100D03*
X53600Y-31100D03*
X52600Y-31100D03*
X51600Y-31100D03*
X50600Y-31100D03*
X49600Y-31100D03*
X49600Y-34100D03*
X50600Y-34100D03*
X51600Y-34100D03*
X52600Y-34100D03*
X53600Y-34100D03*
X54600Y-34100D03*
X55600Y-34100D03*
X56600Y-34100D03*
X56600Y-39100D03*
X55600Y-39100D03*
X58100Y-32350D03*
X58100Y-31350D03*
G54D12*
X62100Y-32100D03*
G54D11*
X62100Y-33100D03*
X61100Y-32100D03*
X61100Y-33100D03*
X60100Y-32100D03*
X60100Y-33100D03*
G54D14*
X48100Y-33600D03*
G54D13*
X48100Y-34600D03*
X48100Y-35600D03*
X48100Y-36600D03*
X48100Y-37600D03*
X48100Y-38600D03*
X48100Y-39600D03*
G54D11*
X48100Y-31600D03*
X48100Y-32600D03*
X61600Y-34100D03*
X62600Y-34100D03*
X62600Y-39100D03*
X57600Y-34100D03*
X59100Y-32100D03*
X59100Y-33100D03*
X58600Y-34100D03*
X59600Y-39100D03*
X60600Y-39100D03*
X61600Y-39100D03*
X54600Y-39100D03*
G54D13*
X63500Y-31400D03*
X63500Y-34400D03*
G54D16*
X56200Y-32800D03*
X51200Y-32100D03*
X58600Y-36100D03*
X56600Y-36100D03*
X56600Y-32350D03*
X53100Y-32600D03*
X56850Y-31850D03*
X64100Y-37350D03*
G54D17*
X55600Y-37850D02*
X55600Y-38100D01*
X56600Y-31100D02*
X57850Y-31100D01*
G54D18*
X50600Y-31100D02*
X50600Y-31500D01*
G54D17*
X55600Y-31100D02*
X56600Y-31100D01*
X57600Y-35100D02*
X57100Y-34600D01*
X55600Y-39600D02*
X55600Y-39100D01*
X57600Y-35100D02*
X57600Y-35850D01*
X57100Y-33700D02*
X56200Y-32800D01*
X53600Y-39900D02*
X55300Y-39900D01*
X55600Y-38100D02*
X55600Y-39100D01*
X57100Y-34600D02*
X57100Y-33700D01*
X57850Y-31100D02*
X58100Y-31350D01*
X55300Y-39900D02*
X55600Y-39600D01*
X55600Y-39600D02*
X55600Y-39100D01*
X56200Y-32800D02*
X55600Y-32200D01*
X57600Y-35850D02*
X55600Y-37850D01*
G54D18*
X50600Y-31500D02*
X51200Y-32100D01*
G54D17*
X55600Y-32200D02*
X55600Y-31100D01*
G54D18*
X54600Y-38100D02*
X54600Y-39100D01*
X59600Y-32600D02*
X60100Y-32100D01*
X58600Y-36100D02*
X59100Y-35600D01*
X59100Y-35600D02*
X59100Y-34850D01*
X49600Y-38100D02*
X49600Y-39900D01*
X49600Y-38100D02*
X51600Y-36100D01*
X51600Y-36100D02*
X56600Y-36100D01*
X59350Y-34600D02*
X59850Y-34600D01*
X59850Y-34600D02*
X60100Y-34350D01*
X59100Y-34850D02*
X59350Y-34600D01*
X60100Y-33850D02*
X59600Y-33350D01*
X59600Y-33350D02*
X59600Y-32600D01*
X60100Y-34350D02*
X60100Y-33850D01*
G54D17*
X49600Y-31100D02*
X49600Y-34100D01*
X58100Y-39600D02*
X58600Y-40100D01*
X57100Y-39600D02*
X58100Y-39600D01*
X56600Y-40100D02*
X57100Y-39600D01*
X65300Y-35400D02*
X65100Y-35600D01*
X65300Y-33700D02*
X65300Y-35400D01*
G54D18*
X51100Y-35600D02*
X51600Y-35100D01*
X48100Y-35600D02*
X51100Y-35600D01*
X52100Y-31600D02*
X52100Y-34600D01*
X52100Y-34600D02*
X52600Y-35100D01*
X51600Y-31100D02*
X52100Y-31600D01*
X58350Y-34100D02*
X56600Y-32350D01*
X58600Y-34100D02*
X58350Y-34100D01*
X53100Y-32600D02*
X53100Y-34600D01*
X53100Y-34600D02*
X53600Y-35100D01*
X53100Y-32600D02*
X54600Y-31100D01*
X58100Y-33100D02*
X56850Y-31850D01*
X59100Y-33100D02*
X58100Y-33100D01*
X62100Y-37600D02*
X63100Y-37600D01*
X61600Y-32600D02*
X61600Y-33350D01*
X59600Y-35100D02*
X62100Y-37600D01*
X62100Y-32100D02*
X61600Y-32600D01*
X59850Y-35100D02*
X59600Y-35100D01*
X64100Y-38600D02*
X65100Y-38600D01*
X61600Y-33350D02*
X59850Y-35100D01*
X59600Y-35100D02*
X62100Y-37600D01*
X63100Y-37600D02*
X64100Y-38600D01*
X62600Y-37100D02*
X63350Y-37100D01*
X64350Y-38100D02*
X65600Y-38100D01*
X60600Y-35100D02*
X62600Y-37100D01*
X65600Y-38100D02*
X66100Y-37600D01*
X63350Y-37100D02*
X64350Y-38100D01*
X62900Y-34600D02*
X64400Y-36100D01*
X65600Y-36100D02*
X66100Y-36600D01*
X61600Y-35100D02*
X62100Y-34600D01*
X65600Y-36100D02*
X66100Y-36600D01*
X64400Y-36100D02*
X65600Y-36100D01*
X62100Y-34600D02*
X62900Y-34600D01*
X61600Y-35100D02*
X62100Y-34600D01*
X65600Y-36100D02*
X66100Y-36600D01*
X62600Y-35850D02*
X62600Y-35100D01*
X64100Y-37350D02*
X62600Y-35850D01*
X61800Y-31400D02*
X63500Y-31400D01*
X61100Y-32100D02*
X61800Y-31400D01*
M02*
