G04 (created by PCBNEW-RS274X (2012-01-19 BZR 3256)-stable) date 10/2/2012 11:56:40 PM*
G01*
G70*
G90*
%MOIN*%
G04 Gerber Fmt 3.4, Leading zero omitted, Abs format*
%FSLAX34Y34*%
G04 APERTURE LIST*
%ADD10C,0.006000*%
%ADD11C,0.010000*%
G04 APERTURE END LIST*
G54D10*
G54D11*
X59946Y-36571D02*
X59970Y-36543D01*
X60018Y-36457D01*
X60041Y-36400D01*
X60065Y-36314D01*
X60089Y-36171D01*
X60089Y-36057D01*
X60065Y-35914D01*
X60041Y-35829D01*
X60018Y-35771D01*
X59970Y-35686D01*
X59946Y-35657D01*
X59470Y-36286D02*
X59494Y-36314D01*
X59565Y-36343D01*
X59613Y-36343D01*
X59685Y-36314D01*
X59732Y-36257D01*
X59756Y-36200D01*
X59780Y-36086D01*
X59780Y-36000D01*
X59756Y-35886D01*
X59732Y-35829D01*
X59685Y-35771D01*
X59613Y-35743D01*
X59565Y-35743D01*
X59494Y-35771D01*
X59470Y-35800D01*
X59304Y-36571D02*
X59280Y-36543D01*
X59232Y-36457D01*
X59208Y-36400D01*
X59185Y-36314D01*
X59161Y-36171D01*
X59161Y-36057D01*
X59185Y-35914D01*
X59208Y-35829D01*
X59232Y-35771D01*
X59280Y-35686D01*
X59304Y-35657D01*
X58566Y-35800D02*
X58542Y-35771D01*
X58494Y-35743D01*
X58375Y-35743D01*
X58328Y-35771D01*
X58304Y-35800D01*
X58280Y-35857D01*
X58280Y-35914D01*
X58304Y-36000D01*
X58590Y-36343D01*
X58280Y-36343D01*
X57971Y-35743D02*
X57923Y-35743D01*
X57875Y-35771D01*
X57852Y-35800D01*
X57828Y-35857D01*
X57804Y-35971D01*
X57804Y-36114D01*
X57828Y-36229D01*
X57852Y-36286D01*
X57875Y-36314D01*
X57923Y-36343D01*
X57971Y-36343D01*
X58018Y-36314D01*
X58042Y-36286D01*
X58066Y-36229D01*
X58090Y-36114D01*
X58090Y-35971D01*
X58066Y-35857D01*
X58042Y-35800D01*
X58018Y-35771D01*
X57971Y-35743D01*
X57328Y-36343D02*
X57614Y-36343D01*
X57471Y-36343D02*
X57471Y-35743D01*
X57519Y-35829D01*
X57566Y-35886D01*
X57614Y-35914D01*
X57138Y-35800D02*
X57114Y-35771D01*
X57066Y-35743D01*
X56947Y-35743D01*
X56900Y-35771D01*
X56876Y-35800D01*
X56852Y-35857D01*
X56852Y-35914D01*
X56876Y-36000D01*
X57162Y-36343D01*
X56852Y-36343D01*
X56257Y-36343D02*
X56257Y-35743D01*
X56066Y-35743D01*
X56019Y-35771D01*
X55995Y-35800D01*
X55971Y-35857D01*
X55971Y-35943D01*
X55995Y-36000D01*
X56019Y-36029D01*
X56066Y-36057D01*
X56257Y-36057D01*
X55757Y-36343D02*
X55757Y-35743D01*
X55543Y-36343D02*
X55543Y-36029D01*
X55566Y-35971D01*
X55614Y-35943D01*
X55686Y-35943D01*
X55733Y-35971D01*
X55757Y-36000D01*
X55305Y-36343D02*
X55305Y-35943D01*
X55305Y-35743D02*
X55329Y-35771D01*
X55305Y-35800D01*
X55281Y-35771D01*
X55305Y-35743D01*
X55305Y-35800D01*
X54996Y-36343D02*
X55043Y-36314D01*
X55067Y-36257D01*
X55067Y-35743D01*
X54734Y-36343D02*
X54781Y-36314D01*
X54805Y-36257D01*
X54805Y-35743D01*
X54543Y-36343D02*
X54543Y-35943D01*
X54543Y-35743D02*
X54567Y-35771D01*
X54543Y-35800D01*
X54519Y-35771D01*
X54543Y-35743D01*
X54543Y-35800D01*
X54305Y-35943D02*
X54305Y-36543D01*
X54305Y-35971D02*
X54257Y-35943D01*
X54162Y-35943D01*
X54114Y-35971D01*
X54091Y-36000D01*
X54067Y-36057D01*
X54067Y-36229D01*
X54091Y-36286D01*
X54114Y-36314D01*
X54162Y-36343D01*
X54257Y-36343D01*
X54305Y-36314D01*
X53472Y-36343D02*
X53472Y-35743D01*
X53281Y-35743D01*
X53234Y-35771D01*
X53210Y-35800D01*
X53186Y-35857D01*
X53186Y-35943D01*
X53210Y-36000D01*
X53234Y-36029D01*
X53281Y-36057D01*
X53472Y-36057D01*
X52781Y-36314D02*
X52829Y-36343D01*
X52924Y-36343D01*
X52972Y-36314D01*
X52996Y-36257D01*
X52996Y-36029D01*
X52972Y-35971D01*
X52924Y-35943D01*
X52829Y-35943D01*
X52781Y-35971D01*
X52758Y-36029D01*
X52758Y-36086D01*
X52996Y-36143D01*
X52329Y-36343D02*
X52329Y-36029D01*
X52352Y-35971D01*
X52400Y-35943D01*
X52495Y-35943D01*
X52543Y-35971D01*
X52329Y-36314D02*
X52376Y-36343D01*
X52495Y-36343D01*
X52543Y-36314D01*
X52567Y-36257D01*
X52567Y-36200D01*
X52543Y-36143D01*
X52495Y-36114D01*
X52376Y-36114D01*
X52329Y-36086D01*
X52091Y-36343D02*
X52091Y-35943D01*
X52091Y-36057D02*
X52067Y-36000D01*
X52043Y-35971D01*
X51996Y-35943D01*
X51948Y-35943D01*
X51805Y-36314D02*
X51757Y-36343D01*
X51662Y-36343D01*
X51614Y-36314D01*
X51590Y-36257D01*
X51590Y-36229D01*
X51614Y-36171D01*
X51662Y-36143D01*
X51733Y-36143D01*
X51781Y-36114D01*
X51805Y-36057D01*
X51805Y-36029D01*
X51781Y-35971D01*
X51733Y-35943D01*
X51662Y-35943D01*
X51614Y-35971D01*
X51305Y-36343D02*
X51352Y-36314D01*
X51376Y-36286D01*
X51400Y-36229D01*
X51400Y-36057D01*
X51376Y-36000D01*
X51352Y-35971D01*
X51305Y-35943D01*
X51233Y-35943D01*
X51185Y-35971D01*
X51162Y-36000D01*
X51138Y-36057D01*
X51138Y-36229D01*
X51162Y-36286D01*
X51185Y-36314D01*
X51233Y-36343D01*
X51305Y-36343D01*
X50924Y-35943D02*
X50924Y-36343D01*
X50924Y-36000D02*
X50900Y-35971D01*
X50853Y-35943D01*
X50781Y-35943D01*
X50733Y-35971D01*
X50710Y-36029D01*
X50710Y-36343D01*
X58376Y-36883D02*
X58376Y-37483D01*
X58376Y-36911D02*
X58328Y-36883D01*
X58233Y-36883D01*
X58185Y-36911D01*
X58162Y-36940D01*
X58138Y-36997D01*
X58138Y-37169D01*
X58162Y-37226D01*
X58185Y-37254D01*
X58233Y-37283D01*
X58328Y-37283D01*
X58376Y-37254D01*
X57924Y-36883D02*
X57924Y-37483D01*
X57924Y-36911D02*
X57876Y-36883D01*
X57781Y-36883D01*
X57733Y-36911D01*
X57710Y-36940D01*
X57686Y-36997D01*
X57686Y-37169D01*
X57710Y-37226D01*
X57733Y-37254D01*
X57781Y-37283D01*
X57876Y-37283D01*
X57924Y-37254D01*
X57162Y-36997D02*
X57186Y-36969D01*
X57234Y-36940D01*
X57281Y-36940D01*
X57329Y-36969D01*
X57353Y-36997D01*
X57377Y-37054D01*
X57377Y-37111D01*
X57353Y-37169D01*
X57329Y-37197D01*
X57281Y-37226D01*
X57234Y-37226D01*
X57186Y-37197D01*
X57162Y-37169D01*
X57162Y-36940D02*
X57162Y-37169D01*
X57139Y-37197D01*
X57115Y-37197D01*
X57067Y-37169D01*
X57043Y-37111D01*
X57043Y-36969D01*
X57091Y-36883D01*
X57162Y-36826D01*
X57258Y-36797D01*
X57353Y-36826D01*
X57424Y-36883D01*
X57472Y-36969D01*
X57496Y-37083D01*
X57472Y-37197D01*
X57424Y-37283D01*
X57353Y-37340D01*
X57258Y-37369D01*
X57162Y-37340D01*
X57091Y-37283D01*
X56829Y-37283D02*
X56829Y-36883D01*
X56829Y-36940D02*
X56805Y-36911D01*
X56758Y-36883D01*
X56686Y-36883D01*
X56638Y-36911D01*
X56615Y-36969D01*
X56615Y-37283D01*
X56615Y-36969D02*
X56591Y-36911D01*
X56543Y-36883D01*
X56472Y-36883D01*
X56424Y-36911D01*
X56400Y-36969D01*
X56400Y-37283D01*
X56210Y-36883D02*
X56091Y-37283D01*
X55971Y-36883D02*
X56091Y-37283D01*
X56138Y-37426D01*
X56162Y-37454D01*
X56210Y-37483D01*
X55590Y-37254D02*
X55638Y-37283D01*
X55733Y-37283D01*
X55781Y-37254D01*
X55805Y-37197D01*
X55805Y-36969D01*
X55781Y-36911D01*
X55733Y-36883D01*
X55638Y-36883D01*
X55590Y-36911D01*
X55567Y-36969D01*
X55567Y-37026D01*
X55805Y-37083D01*
X55281Y-37283D02*
X55328Y-37254D01*
X55352Y-37197D01*
X55352Y-36683D01*
X55090Y-37283D02*
X55090Y-36883D01*
X55090Y-36683D02*
X55114Y-36711D01*
X55090Y-36740D01*
X55066Y-36711D01*
X55090Y-36683D01*
X55090Y-36740D01*
X54852Y-36883D02*
X54852Y-37283D01*
X54852Y-36940D02*
X54828Y-36911D01*
X54781Y-36883D01*
X54709Y-36883D01*
X54661Y-36911D01*
X54638Y-36969D01*
X54638Y-37283D01*
X54400Y-37226D02*
X54376Y-37254D01*
X54400Y-37283D01*
X54424Y-37254D01*
X54400Y-37226D01*
X54400Y-37283D01*
X53948Y-37254D02*
X53995Y-37283D01*
X54091Y-37283D01*
X54138Y-37254D01*
X54162Y-37226D01*
X54186Y-37169D01*
X54186Y-36997D01*
X54162Y-36940D01*
X54138Y-36911D01*
X54091Y-36883D01*
X53995Y-36883D01*
X53948Y-36911D01*
X53662Y-37283D02*
X53709Y-37254D01*
X53733Y-37226D01*
X53757Y-37169D01*
X53757Y-36997D01*
X53733Y-36940D01*
X53709Y-36911D01*
X53662Y-36883D01*
X53590Y-36883D01*
X53542Y-36911D01*
X53519Y-36940D01*
X53495Y-36997D01*
X53495Y-37169D01*
X53519Y-37226D01*
X53542Y-37254D01*
X53590Y-37283D01*
X53662Y-37283D01*
X53281Y-37226D02*
X53257Y-37254D01*
X53281Y-37283D01*
X53305Y-37254D01*
X53281Y-37226D01*
X53281Y-37283D01*
X53043Y-36883D02*
X53043Y-37283D01*
X53043Y-36940D02*
X53019Y-36911D01*
X52972Y-36883D01*
X52900Y-36883D01*
X52852Y-36911D01*
X52829Y-36969D01*
X52829Y-37283D01*
X52639Y-36883D02*
X52377Y-36883D01*
X52639Y-37283D01*
X52377Y-37283D01*
M02*
